<?xml version="1.0" encoding="utf-8"?>
<!-- Svg Vector Icons : http://www.onlinewebfonts.com/icon -->
<!DOCTYPE svg PUBLIC "-//W3C//DTD SVG 1.1//EN" "http://www.w3.org/Graphics/SVG/1.1/DTD/svg11.dtd">
<svg version="1.1" xmlns="http://www.w3.org/2000/svg" xmlns:xlink="http://www.w3.org/1999/xlink" x="0px" y="0px" viewBox="0 0 1000 1000" enable-background="new 0 0 1000 1000" xml:space="preserve">
<metadata> Svg Vector Icons : http://www.onlinewebfonts.com/icon </metadata>
<g><path fill="white" d="M498.9,615.4c-2.5,3.4-3.7,5.6-5.4,7.3c-113.6,113.7-227.2,227.3-340.9,341c-24.4,24.4-53.5,32.4-86.4,21.7c-58-18.9-75.3-92.4-32-136C95.1,788,156.5,727,217.7,665.8c53.3-53.3,106.6-106.6,159.9-159.9c1.6-1.6,3-3.2,6-6.4c-2.7-1.9-5.5-3.4-7.6-5.5c-112.4-112.3-224.8-224.7-337.1-337C7.2,125.3,3.7,79.4,30.2,46.1c30.7-38.5,86.1-41.8,121.9-6.9c26.1,25.5,51.7,51.5,77.5,77.3c87.9,87.8,175.7,175.7,263.5,263.6c1.6,1.6,2.5,3.7,4,5.9c2.9-2.8,4.5-4.3,6.1-5.8C618.3,265.1,733.4,150,848.5,35C888.5-4.9,953.1,4.1,980,53.1c17.6,32,11.8,71.2-14.8,98c-31.4,31.6-63,63.1-94.6,94.6c-83.7,83.7-167.4,167.4-251.1,251.1c-1.4,1.4-2.8,2.9-5.8,6.1c4.4,3.7,9.1,7,13,10.9c111,110.9,221.9,221.8,332.8,332.8c28.6,28.6,33.4,69.4,12.7,102.5c-27.9,44.6-89.3,51.5-127.2,13.9c-47.6-47.2-94.9-94.8-142.4-142.3c-65.9-65.9-131.8-131.8-197.7-197.8C503.2,621.2,501.8,619.1,498.9,615.4z"/></g>
</svg>