<?xml version="1.0" encoding="utf-8"?>
<!-- Svg Vector Icons : http://www.onlinewebfonts.com/icon -->
<!DOCTYPE svg PUBLIC "-//W3C//DTD SVG 1.1//EN" "http://www.w3.org/Graphics/SVG/1.1/DTD/svg11.dtd">
<svg version="1.1" xmlns="http://www.w3.org/2000/svg" xmlns:xlink="http://www.w3.org/1999/xlink" x="0px" y="0px" viewBox="0 0 1000 1000" enable-background="new 0 0 1000 1000" xml:space="preserve">
<metadata> Svg Vector Icons : http://www.onlinewebfonts.com/icon </metadata>
<g><g transform="translate(0.000000,512.000000) scale(0.100000,-0.100000)"><path d="M5670.7,4916.4L5544,4812.7l9.6-349.2c5.8-191.9,26.9-2187.6,48-4436.6c23-2249,44.1-4210.1,49.9-4357.9l11.5-272.5l122.8-88.3c67.2-48,132.4-88.3,142-88.3s771.4,255.2,1690.6,566.1c919.2,310.9,1675.2,566.1,1679,566.1c3.8,0,42.2,49.9,86.4,109.4l80.6,107.5l-11.5,740.7c-7.7,406.8-13.4,2072.4-13.4,3699.7v2957.1l-84.4,103.6l-82.5,101.7l-1562,381.9c-859.7,211.1-1640.7,401.1-1736.6,424.1l-174.6,42.2L5670.7,4916.4z M7509,4181.4c823.2-201.5,1500.6-370.4,1506.4-376.1c5.7-5.8,13.4-1606.1,17.2-3557.7c5.8-3400.4,3.8-3546.2-28.8-3559.6c-170.8-67.2-2928.3-990.1-2936-982.5c-7.7,9.6-99.8,7687.3-101.7,8537.4c0,249.5,5.8,318.5,24.9,312.8C6002.7,4549.9,6687.7,4382.9,7509,4181.4z"/><path d="M6467,389.6c-61.4-44.1-117-172.7-117-276.3c0-103.6,55.6-232.2,117-276.3c25-17.3,74.9-30.7,113.2-30.7c88.3,0,149.7,44.1,193.8,142c67.1,147.8,26.9,364.6-80.6,441.4c-25,17.3-74.8,30.7-113.2,30.7S6492,406.9,6467,389.6z"/><path d="M3389.1,4319.6l-109.4-111.3v-896.1V2416h201.5h201.5v796.4v796.4h806h806v211.1v211.1h-898.1h-898.1L3389.1,4319.6z"/><path d="M1681.2,1402.8L535.6,257.2V113.3V-30.6L1687-1180.1l1149.4-1151.4l168.9,69.1l168.9,67.2l9.6,477.8l9.6,477.8l1051.6,5.8l1049.7,3.8v201.5V-827H4137.4H2980.3l-99.8-101.7l-99.8-101.7l-1.9-333.9v-335.8l-890.4,901.9c-491.3,497-892.3,905.7-892.3,911.5c0,5.8,401.1,410.6,892.3,901.9l892.3,892.3v-326.2v-328.1l101.7-99.8l101.7-99.8h1155.2h1155.2V1255v201.5l-167,1.9c-94,0-566.1,1.9-1051.6,3.8l-882.7,3.8l-5.8,474l-3.8,472.1l-165,69.1c-90.2,38.4-170.8,69.1-178.5,69.1C2834.5,2550.3,2312.5,2034.1,1681.2,1402.8z"/><path d="M3279.7-2943.6v-754.1l101.7-99.8l101.7-99.8h953.7h953.7v201.5v201.5l-848.2,3.8l-850.1,5.7l-5.8,648.6l-3.8,646.7h-201.5h-201.5V-2943.6z"/></g></g>
</svg>