<?xml version="1.0" encoding="utf-8"?>
<!-- Svg Vector Icons : http://www.onlinewebfonts.com/icon -->
<!DOCTYPE svg PUBLIC "-//W3C//DTD SVG 1.1//EN" "http://www.w3.org/Graphics/SVG/1.1/DTD/svg11.dtd">
<svg version="1.1" xmlns="http://www.w3.org/2000/svg" xmlns:xlink="http://www.w3.org/1999/xlink" x="0px" y="0px" viewBox="0 0 1000 1000" enable-background="new 0 0 1000 1000" xml:space="preserve">
<metadata> Svg Vector Icons : http://www.onlinewebfonts.com/icon </metadata>
<g><path d="M979.7,484l-455-455c-13.7-13.7-35.8-13.7-49.5,0l-455,455c-13.7,13.7-13.7,35.8,0,49.5c13.7,13.7,35.8,13.7,49.5,0L500,103.3l280.5,280.5c0,0.9-0.5,1.6-0.5,2.5v525H220v-350c0-19.4-15.7-35-35-35s-35,15.6-35,35v385c0,19.4,15.7,35,35,35h630c19.4,0,35-15.6,35-35v-493l80.3,80.3c6.8,6.8,15.8,10.3,24.7,10.3s17.9-3.4,24.7-10.3C993.4,519.8,993.4,497.7,979.7,484z"/></g>
</svg>